<svg xmlns="http://www.w3.org/2000/svg" version="1.1" viewBox="0 0 1000 250"><g><path fill="#fecb07" d="M 16.5,8.5 C 18.3092,16.7755 19.1425,25.4421 19,34.5C 19.414,34.9574 19.914,35.2907 20.5,35.5C 22.0009,31.2023 24.0009,27.0357 26.5,23C 30.0985,21.9861 33.7652,21.1527 37.5,20.5C 38.8751,17.4529 41.2084,16.1196 44.5,16.5C 44.5,22.8333 44.5,29.1667 44.5,35.5C 48.1817,35.6653 51.8484,35.4986 55.5,35C 57.5268,33.6043 57.8602,31.9376 56.5,30C 52.4928,29.4814 48.9928,27.9814 46,25.5C 45.51,24.2068 45.3433,22.8734 45.5,21.5C 59.4736,18.3224 65.6403,23.6558 64,37.5C 63.5348,38.9308 62.7014,40.0975 61.5,41C 55.772,42.123 49.9387,42.623 44,42.5C 34.7652,42.072 25.5986,41.9054 16.5,42C 14.714,41.2155 13.214,40.0488 12,38.5C 10,29.5 10,20.5 12,11.5C 13.4087,10.2189 14.9087,9.21886 16.5,8.5 Z M 33.5,28.5 C 34.8333,28.5 36.1667,28.5 37.5,28.5C 37.5,30.8333 37.5,33.1667 37.5,35.5C 35.4086,35.6816 33.4086,35.3482 31.5,34.5C 30.0205,31.743 30.6872,29.743 33.5,28.5 Z" style="opacity: 0.901;"></path></g><g><path fill="#fecb07" d="M 148.5,8.5 C 150.149,16.7944 151.149,25.4611 151.5,34.5C 165.122,35.3159 178.788,35.8159 192.5,36C 191.692,38.0876 190.692,40.0876 189.5,42C 156.098,42.5936 122.765,42.5936 89.5,42C 84.7432,39.2605 82.7432,35.0939 83.5,29.5C 81.8008,29.3398 80.1341,29.5065 78.5,30C 77.7117,33.0757 77.2117,36.2423 77,39.5C 75.4912,41.9193 73.3245,42.9193 70.5,42.5C 70.334,37.1563 70.5006,31.8229 71,26.5C 72.1094,24.1853 73.9427,22.6853 76.5,22C 86.7117,19.8764 91.8783,24.0431 92,34.5C 94.3806,35.435 96.8806,35.7683 99.5,35.5C 99.6915,22.2242 106.025,18.2242 118.5,23.5C 120.984,26.2936 122.151,29.6269 122,33.5C 124.333,36.1667 126.667,36.1667 129,33.5C 129.333,30.5 129.667,27.5 130,24.5C 131.734,22.5494 133.901,21.5494 136.5,21.5C 136.174,25.8839 136.508,30.2172 137.5,34.5C 139.644,35.9535 141.477,35.6201 143,33.5C 143.333,26.1667 143.667,18.8333 144,11.5C 145.409,10.2189 146.909,9.21886 148.5,8.5 Z M 110.5,28.5 C 115.826,30.8495 115.826,33.1828 110.5,35.5C 105.168,33.1677 105.168,30.8344 110.5,28.5 Z" style="opacity: 0.921;"></path></g><g><path fill="#fecb07" d="M 239.5,8.5 C 241.177,17.0196 242.177,25.8529 242.5,35C 243.996,35.5074 245.163,35.0074 246,33.5C 245.249,25.0843 249.083,21.0843 257.5,21.5C 265.571,21.9087 269.571,26.242 269.5,34.5C 274.77,35.4512 280.103,35.7846 285.5,35.5C 285.915,38.368 284.915,40.5347 282.5,42C 269.677,41.8593 256.843,42.026 244,42.5C 238.729,42.8692 235.396,40.5358 234,35.5C 233.099,27.4212 233.432,19.4212 235,11.5C 236.409,10.2189 237.909,9.21886 239.5,8.5 Z M 256.5,28.5 C 257.708,29.2341 259.041,29.5674 260.5,29.5C 261.592,34.1225 259.925,35.9558 255.5,35C 252.851,32.4197 253.184,30.253 256.5,28.5 Z" style="opacity: 0.891;"></path></g><g><path fill="#fecb07" d="M 323.5,8.5 C 325.478,19.4507 326.144,30.784 325.5,42.5C 323.167,42.5 320.833,42.5 318.5,42.5C 318.334,32.4944 318.5,22.4944 319,12.5C 319.907,10.3909 321.407,9.05759 323.5,8.5 Z" style="opacity: 0.942;"></path></g><g><path fill="#fecb07" d="M 105.5,10.5 C 107.722,10.178 109.556,10.8446 111,12.5C 115,9.5 117,10.5 117,15.5C 115,18.1667 113,18.1667 111,15.5C 108.09,18.3085 105.923,17.8085 104.5,14C 104.648,12.7441 104.982,11.5774 105.5,10.5 Z" style="opacity: 0.74;"></path></g><g><path fill="#fecb07" d="M 213.5,21.5 C 225.489,19.6569 230.656,24.6569 229,36.5C 228.226,38.9393 226.726,40.7727 224.5,42C 218.833,42.3333 213.167,42.6667 207.5,43C 206.286,45.3506 205.452,47.8506 205,50.5C 203.103,52.0163 200.936,52.683 198.5,52.5C 198.133,48.0329 198.633,43.6996 200,39.5C 201.883,36.9756 204.383,35.6423 207.5,35.5C 207.335,32.4816 207.502,29.4816 208,26.5C 209.352,24.251 211.185,22.5844 213.5,21.5 Z M 217.5,28.5 C 218.708,29.2341 220.041,29.5674 221.5,29.5C 222.592,34.1225 220.925,35.9558 216.5,35C 213.851,32.4197 214.184,30.253 217.5,28.5 Z" style="opacity: 0.895;"></path></g><g><path fill="#fecb07" d="M 299.5,21.5 C 303.167,21.5 306.833,21.5 310.5,21.5C 310.5,24.1667 310.5,26.8333 310.5,29.5C 307.102,29.1796 303.768,29.513 300.5,30.5C 299.141,32.306 299.475,33.806 301.5,35C 305.222,35.2382 308.889,35.7382 312.5,36.5C 314.327,38.4872 315.327,40.8205 315.5,43.5C 310.489,43.6659 305.489,43.4993 300.5,43C 292.921,40.5167 290.421,35.35 293,27.5C 294.436,24.5581 296.603,22.5581 299.5,21.5 Z" style="opacity: 0.838;"></path></g><g><path fill="#fecb07" d="M 332.5,21.5 C 333.833,21.5 335.167,21.5 336.5,21.5C 336.2,26.0986 336.533,30.5986 337.5,35C 342.489,35.4993 347.489,35.6659 352.5,35.5C 352.915,38.368 351.915,40.5347 349.5,42C 345.179,42.499 340.846,42.6657 336.5,42.5C 336.466,47.916 333.966,51.5827 329,53.5C 328.333,44.1667 328.333,34.8333 329,25.5C 329.69,23.6498 330.856,22.3164 332.5,21.5 Z" style="opacity: 0.87;"></path></g><g><path fill="#fecb07" d="M 272.5,25.5 C 276.208,26.3872 279.875,26.5539 283.5,26C 285.147,31.9198 283.314,33.4198 278,30.5C 272.828,32.3149 270.995,30.6483 272.5,25.5 Z" style="opacity: 0.765;"></path></g><g><path fill="#fecb07" d="M 125.5,47.5 C 128.238,48.2372 130.905,48.2372 133.5,47.5C 137.793,48.5821 138.46,50.7488 135.5,54C 133.433,54.5356 131.599,54.0356 130,52.5C 127.136,55.3264 124.969,54.8264 123.5,51C 123.978,49.6974 124.645,48.5307 125.5,47.5 Z" style="opacity: 0.703;"></path></g><g><path fill="#fecb07" d="M 342.5,47.5 C 347.241,47.1614 348.574,49.1614 346.5,53.5C 343.849,54.8416 342.182,54.0083 341.5,51C 341.648,49.7441 341.982,48.5774 342.5,47.5 Z" style="opacity: 0.767;"></path></g><g><path fill="#00aced" d="M 788.5,177.5 C 793.423,167.626 792.256,158.626 785,150.5C 781.239,146.23 777.072,142.563 772.5,139.5C 757.839,125.673 743.673,111.339 730,96.5C 722.197,81.0463 724.363,67.213 736.5,55C 738.5,54.3333 740.5,54.3333 742.5,55C 766.333,78.8333 790.167,102.667 814,126.5C 820.787,134.641 821.121,142.974 815,151.5C 806.298,160.369 797.465,169.036 788.5,177.5 Z" style="opacity: 0.964;"></path></g><g><path fill="#fec907" d="M 875.5,177.5 C 876.479,173.526 877.479,169.526 878.5,165.5C 877.847,161.191 876.347,157.191 874,153.5C 869.241,148.234 864.075,143.567 858.5,139.5C 845.202,125.701 831.702,112.035 818,98.5C 808.545,83.7778 809.545,69.7778 821,56.5C 823.497,54.5218 826.331,54.0218 829.5,55C 852,77.5 874.5,100 897,122.5C 900.451,125.956 903.118,129.956 905,134.5C 906.225,140.268 905.225,145.601 902,150.5C 893.661,160.005 884.828,169.005 875.5,177.5 Z" style="opacity: 0.957;"></path></g><g><path fill="#eb1c23" d="M 961.5,177.5 C 962.505,173.493 963.505,169.493 964.5,165.5C 964.239,161.55 963.072,157.883 961,154.5C 955.909,148.902 950.409,143.902 944.5,139.5C 931.535,126.035 918.369,112.701 905,99.5C 893.804,83.413 895.304,68.5796 909.5,55C 911.5,54.3333 913.5,54.3333 915.5,55C 939,78.5 962.5,102 986,125.5C 991.973,132.866 992.973,140.866 989,149.5C 980.328,159.338 971.161,168.672 961.5,177.5 Z" style="opacity: 0.958;"></path></g><g><path fill="#fefffe" d="M 386.5,67.5 C 388.167,67.5 389.833,67.5 391.5,67.5C 391.333,95.502 391.5,123.502 392,151.5C 392.5,152 393,152.5 393.5,153C 434.794,154.472 476.127,154.972 517.5,154.5C 517.64,168.746 510.64,176.246 496.5,177C 462.5,177.667 428.5,177.667 394.5,177C 381.286,174.783 372.786,167.283 369,154.5C 368.333,130.5 368.333,106.5 369,82.5C 371.654,73.6721 377.488,68.6721 386.5,67.5 Z" style="opacity: 0.955;"></path></g><g><path fill="#fefffe" d="M 550.5,67.5 C 552.167,67.5 553.833,67.5 555.5,67.5C 555.333,95.502 555.5,123.502 556,151.5C 556.5,152 557,152.5 557.5,153C 560.833,153.667 564.167,153.667 567.5,153C 568.931,152.535 570.097,151.701 571,150.5C 571.957,142.466 573.291,134.466 575,126.5C 582.148,112.923 593.481,106.923 609,108.5C 634.914,109.088 646.914,122.422 645,148.5C 645.465,149.931 646.299,151.097 647.5,152C 650.101,152.92 652.768,153.587 655.5,154C 670.496,154.5 685.496,154.667 700.5,154.5C 700.151,168.345 693.151,175.845 679.5,177C 669.167,177.667 658.833,177.667 648.5,177C 642.569,176.356 637.069,174.523 632,171.5C 615.91,179.447 599.743,179.447 583.5,171.5C 566.154,180.995 550.654,178.662 537,164.5C 535.107,161.382 533.774,158.049 533,154.5C 532.333,130.5 532.333,106.5 533,82.5C 535.654,73.6721 541.488,68.6721 550.5,67.5 Z M 604.5,131.5 C 619.963,130.119 624.963,136.619 619.5,151C 611.556,155.961 604.056,155.461 597,149.5C 593.322,140.552 595.822,134.552 604.5,131.5 Z" style="opacity: 0.954;"></path></g><g><path fill="#fefffe" d="M 284.5,75.5 C 294.977,75.1489 299.144,80.1489 297,90.5C 296.167,92.6667 294.667,94.1667 292.5,95C 279.178,96.3502 275.011,90.8502 280,78.5C 281.652,77.6006 283.152,76.6006 284.5,75.5 Z" style="opacity: 0.889;"></path></g><g><path fill="#fefffe" d="M 36.5,108.5 C 65.2871,105.793 79.4538,118.793 79,147.5C 79.8333,150.333 81.6667,152.167 84.5,153C 101.118,154.425 117.785,154.925 134.5,154.5C 134.357,163.289 130.691,170.122 123.5,175C 108.249,177.928 92.9152,178.261 77.5,176C 65.4505,172.618 58.2838,164.784 56,152.5C 55.9059,146.722 55.2392,141.056 54,135.5C 48.8916,131.398 43.3916,130.731 37.5,133.5C 36.4164,134.665 35.5831,135.998 35,137.5C 33.8355,145.782 33.1689,154.116 33,162.5C 28.9801,172.6 21.4801,177.267 10.5,176.5C 10.3334,163.496 10.5001,150.496 11,137.5C 12.3406,121.337 20.8406,111.67 36.5,108.5 Z" style="opacity: 0.947;"></path></g><g><path fill="#fefffe" d="M 168.5,108.5 C 199.73,104.57 214.897,118.237 214,149.5C 215.214,151.049 216.714,152.215 218.5,153C 235.625,154.131 252.791,154.631 270,154.5C 285.5,154.333 301,154.167 316.5,154C 319.232,153.587 321.899,152.92 324.5,152C 325.701,151.097 326.535,149.931 327,148.5C 327.867,144.044 327.534,139.711 326,135.5C 323.958,133.396 321.458,132.229 318.5,132C 295.783,131.958 273.117,131.291 250.5,130C 242.251,125.346 238.251,118.179 238.5,108.5C 267.169,108.333 295.835,108.5 324.5,109C 342.958,112.797 351.625,124.13 350.5,143C 351.251,163.247 341.585,174.58 321.5,177C 285.477,177.807 249.477,177.641 213.5,176.5C 214.736,194.066 207.07,205.4 190.5,210.5C 190.5,199.167 190.5,187.833 190.5,176.5C 180.39,178.104 170.39,177.604 160.5,175C 151.138,171.64 145.305,165.14 143,155.5C 140.314,144.125 141.314,133.125 146,122.5C 151.437,114.372 158.937,109.705 168.5,108.5 Z M 173.5,131.5 C 187.804,129.809 192.971,135.809 189,149.5C 181.333,156.167 173.667,156.167 166,149.5C 163.777,144.063 164.277,138.897 167.5,134C 169.611,133.155 171.611,132.322 173.5,131.5 Z" style="opacity: 0.955;"></path></g><g><path fill="#fefffe" d="M 108.5,116.5 C 119.11,117.713 122.61,123.38 119,133.5C 112.189,139.25 106.189,138.584 101,131.5C 99.0076,124.049 101.508,119.049 108.5,116.5 Z" style="opacity: 0.883;"></path></g><g><path fill="#fefffe" d="M 664.5,120.5 C 674.103,121.031 677.937,126.031 676,135.5C 671.701,141.859 666.201,143.025 659.5,139C 654.345,130.843 656.011,124.676 664.5,120.5 Z" style="opacity: 0.881;"></path></g><g><path fill="#fefffe" d="M 684.5,121.5 C 695.182,122.005 699.015,127.339 696,137.5C 689.58,144.357 683.58,144.023 678,136.5C 675.885,129.414 678.051,124.414 684.5,121.5 Z" style="opacity: 0.886;"></path></g><g><path fill="#fefffe" d="M 435.5,122.5 C 445.988,121.487 450.488,126.154 449,136.5C 446.081,142.025 441.581,143.858 435.5,142C 429.975,139.081 428.142,134.581 430,128.5C 431.36,125.977 433.193,123.977 435.5,122.5 Z" style="opacity: 0.892;"></path></g><g><path fill="#fefffe" d="M 458.5,122.5 C 468.988,121.487 473.488,126.154 472,136.5C 469.081,142.025 464.581,143.858 458.5,142C 452.975,139.081 451.142,134.581 453,128.5C 454.36,125.977 456.193,123.977 458.5,122.5 Z" style="opacity: 0.891;"></path></g><g><path fill="#fefffe" d="M 481.5,122.5 C 491.99,121.489 496.49,126.155 495,136.5C 491.723,142.109 486.89,143.942 480.5,142C 475.782,138.657 474.282,134.157 476,128.5C 477.36,125.977 479.193,123.977 481.5,122.5 Z" style="opacity: 0.897;"></path></g><g><path fill="#0094da" d="M 772.5,139.5 C 777.072,142.563 781.239,146.23 785,150.5C 792.256,158.626 793.423,167.626 788.5,177.5C 773.368,193.132 758.035,208.632 742.5,224C 740.5,224.667 738.5,224.667 736.5,224C 723.984,211.221 722.151,197.054 731,181.5C 745.035,167.632 758.869,153.632 772.5,139.5 Z" style="opacity: 0.97;"></path></g><g><path fill="#f9a619" d="M 858.5,139.5 C 864.075,143.567 869.241,148.234 874,153.5C 876.347,157.191 877.847,161.191 878.5,165.5C 877.479,169.526 876.479,173.526 875.5,177.5C 860.339,193.494 844.673,208.994 828.5,224C 826.029,224.706 823.695,224.373 821.5,223C 810.449,211.107 808.615,197.94 816,183.5C 830.006,168.661 844.173,153.994 858.5,139.5 Z" style="opacity: 0.962;"></path></g><g><path fill="#c8232a" d="M 944.5,139.5 C 950.409,143.902 955.909,148.902 961,154.5C 963.072,157.883 964.239,161.55 964.5,165.5C 963.505,169.493 962.505,173.493 961.5,177.5C 946.368,193.132 931.035,208.632 915.5,224C 913.5,224.667 911.5,224.667 909.5,224C 894.503,209.216 893.67,193.716 907,177.5C 919.702,164.965 932.202,152.298 944.5,139.5 Z" style="opacity: 0.955;"></path></g></svg>